<?xml version="1.0" encoding="utf-8"?>
<!-- Generator: Adobe Illustrator 21.0.0, SVG Export Plug-In . SVG Version: 6.00 Build 0)  -->
<svg version="1.1" id="Layer_1" xmlns="http://www.w3.org/2000/svg" xmlns:xlink="http://www.w3.org/1999/xlink" x="0px" y="0px"
	 viewBox="0 0 675 146" style="enable-background:new 0 0 675 146;" xml:space="preserve">
<style type="text/css">
	.st0{fill:#FFFFFF;}
</style>
<path class="st0" d="M26.3,84.6c0,18.4,13.9,32.6,31.5,32.6c18.7,0,33.8-14.8,33.8-32.9C91.7,66.9,78,52,58.9,52
	c-7.2,0-11.6,1.8-15.1,3.8h-0.2V33.6c0-0.2-0.3-0.5-0.5-0.5H26.8c-0.2,0-0.5,0.3-0.5,0.5V84.6z M77.1,89.6l-23.4,13.6
	c-3.2,1.8-9.1,0.5-9.1-5.1V70.9c0-5.4,4.7-7.7,9.1-5.1l23.4,13.6C81,81.6,80.8,87.3,77.1,89.6"/>
<path class="st0" d="M195.5,114.8h4.8V98.9h-5.3c-4.4,0-7.4-2.4-7.4-7.4V70.9c0-0.4,0.3-0.8,0.8-0.8h11.9V54.4h-11.9
	c-0.4,0-0.8-0.3-0.8-0.8V33.4c0-0.1-0.1-0.3-0.3-0.3h-16.9c-0.1,0-0.3,0.1-0.3,0.3v58.9C170.3,102.6,177.6,114.8,195.5,114.8"/>
<path class="st0" d="M207.8,114.8h17.4V33.4c0-0.1-0.1-0.3-0.3-0.3H208c-0.1,0-0.3,0.1-0.3,0.3V114.8z"/>
<path class="st0" d="M232.8,41.3c0,5.6,4.5,10.4,10.3,10.4c5.7,0,10.4-4.8,10.4-10.4c0-5.6-4.7-10.3-10.4-10.3
	C237.4,31,232.8,35.7,232.8,41.3 M234.9,54.4h16.9c0.1,0,0.3,0.1,0.3,0.3v60.1h-17.4V54.7C234.6,54.5,234.8,54.4,234.9,54.4"/>
<path class="st0" d="M302.4,114.8l23.3-60c0.1-0.2-0.1-0.3-0.2-0.3h-17c-0.1,0-0.2,0.1-0.2,0.2l-16.5,42.9h-0.3l-16.5-42.9
	c0-0.1-0.1-0.2-0.2-0.2h-17c-0.2,0-0.3,0.2-0.2,0.3l23.3,60H302.4z"/>
<path class="st0" d="M402.3,117c5.6,0,10.1-4.7,10.1-10.1c0-5.4-4.5-10-10.1-10c-5.6,0-10,4.5-10,10
	C392.4,112.4,396.8,117,402.3,117"/>
<path class="st0" d="M474.9,99l-13.7-5.8c-0.1-0.1-0.3,0-0.3,0.1c-3.4,6.1-11.1,9.6-18.6,7.8c-6.4-1.5-11.3-6.7-12.7-13.1
	c-2.3-10.6,5.9-20.2,16.7-20.2c6.6,0,12.1,3.5,14.8,8.7c0.1,0.1,0.2,0.2,0.3,0.1l13.9-5.6c0.1-0.1,0.2-0.2,0.1-0.3
	c-5.2-11-16.1-18.6-29.2-18.6c-18,0-32.5,14.6-32.5,32.8c0,17.8,14.3,32.5,32.3,32.5c12.7,0,23.7-7.4,29-17.9
	C475,99.2,475,99,474.9,99"/>
<path class="st0" d="M480.5,84.7c0,17.8,14.3,32.5,32.3,32.5c18,0,32.5-14.6,32.5-32.8C545.3,66.6,531,52,513,52
	C495,52,480.5,66.6,480.5,84.7 M529.7,84.7c0,9.4-7.4,16.8-16.8,16.8c-9.5,0-16.9-7.4-16.9-17.1c0-9.4,7.4-16.8,16.8-16.8
	C522.4,67.7,529.7,75.1,529.7,84.7"/>
<path class="st0" d="M591.2,78.4v36.4h16.3V78.6c0-6,5.1-10.9,10.7-10.9c5.6,0,10.6,4.8,10.6,10.9v36.2h16.2v-37
	c0-15.8-10.9-25.8-25.2-25.8c-9.1,0-15.8,4.2-20.4,10.3c-4.4-6-11.2-10.3-20.2-10.3c-14.3,0-25.2,10-25.2,25.8v37H570V78.4
	c0-6,4.8-10.9,10.4-10.9C586,67.5,591.2,72.4,591.2,78.4"/>
<path class="st0" d="M143.3,97.9c-0.2,0-0.3,0.1-0.4,0.2c-2.9,2.7-7.7,4.8-13.2,4.8c-7.7,0-14.2-4.7-16.8-11.2h47.9
	c0.5,0,0.9-0.3,0.9-0.8c1.8-22.2-11.2-38.9-32-38.9c-20.7,0-32.3,16.9-32.3,32.3c0,18.3,14.3,32.9,32.3,32.9
	c9.9,0,24.2-5.5,30.3-18.4c0.2-0.4-0.1-0.9-0.6-0.9H143.3z M129.6,66.2c7.5,0,13.9,4.7,16.8,11.3h-33.5
	C115.4,70.9,121.9,66.2,129.6,66.2z"/>
<path class="st0" d="M369.4,97.9c-0.2,0-0.3,0.1-0.4,0.2c-2.9,2.7-7.7,4.8-13.2,4.8c-7.3,0-13.6-4.2-16.4-10.2
	c-0.2-0.4,0.1-0.9,0.6-0.9h46.9c0.5,0,0.9-0.3,0.9-0.8c1.8-22.2-11.2-38.9-32-38.9c-20.7,0-32.3,16.9-32.3,32.3
	c0,18.3,14.3,32.9,32.3,32.9c9.9,0,24.2-5.5,30.3-18.4c0.2-0.4-0.1-0.9-0.6-0.9H369.4z M355.7,66.2c7.2,0,13.3,4.2,16.3,10.4
	c0.2,0.4-0.1,0.9-0.6,0.9h-31.5c-0.5,0-0.8-0.5-0.6-0.9C342.1,70.4,348.4,66.2,355.7,66.2z"/>
</svg>
