<?xml version="1.0" encoding="UTF-8"?>
<svg width="182px" height="36px" viewBox="0 0 182 36" version="1.1" xmlns="http://www.w3.org/2000/svg" xmlns:xlink="http://www.w3.org/1999/xlink">
    <title>retail / fill</title>
    <defs>
        <path d="M41.2688312,6.92307692 C40.9337662,6.48 36.5779221,-5.32907052e-14 28.9272727,-5.32907052e-14 L12.6766234,-5.32907052e-14 C7.37142857,-5.32907052e-14 3.07142857,4.26461538 3.07142857,9.52615385 L3.07142857,27.3046154 C3.07142857,27.8584615 2.23376623,27.5261538 2.23376623,27.5261538 L2.23376623,27.5261538 C2.06623377,27.4707692 1.84285714,27.4153846 1.56363636,27.4153846 C0.67012987,27.4153846 -1.77635684e-14,28.1353846 -1.77635684e-14,28.9661538 C-1.77635684e-14,30.7938462 2.9038961,31.6246154 4.07662338,31.6246154 C4.41168831,31.6246154 4.8025974,31.5692308 5.08181818,31.5692308 C6.81298701,33.7846154 9.54935065,35.2246154 12.6207792,35.2246154 L28.9272727,35.2246154 C34.2324675,35.2246154 38.5324675,30.96 38.5324675,25.6984615 L38.5324675,15.9507692 C38.5324675,15.9507692 40.5428571,13.4584615 40.7103896,13.1815385 L40.7103896,13.1815385 C40.7103896,13.1815385 42.3298701,11.0215385 42.7207792,10.1907692 C43.1116883,9.47076923 42.7766234,9.08307692 41.2688312,6.92307692 Z" id="path-1"></path>
    </defs>
    <g id="retail-/-fill" stroke="none" stroke-width="1" fill="none" fill-rule="evenodd">
        <g id="Group-2">
            <mask id="mask-2" fill="white">
                <use xlink:href="#path-1"></use>
            </mask>
            <use id="Path" fill="#FFFFFF" fill-rule="nonzero" xlink:href="#path-1"></use>
            <path d="M31.4909091,24.7138462 C31.825974,24.8246154 32.2168831,24.88 32.6636364,24.88 C34.3948052,24.88 35.2324675,24.2153846 35.2324675,23.3846154 C35.2324675,22.4430769 33.9480519,22.4430769 33.7805195,21.6123077 C33.612987,20.56 33.7246753,15.9076923 35.5116883,13.36 L36.7402597,13.9138462 C36.7402597,13.9138462 37.0753247,14.08 37.5220779,14.08 C37.8012987,14.08 38.0805195,13.9692308 38.3597403,13.6369231 C39.0298701,12.9169231 40.9285714,10.5353846 41.5428571,9.31692308 C41.7103896,8.98461538 39.1415584,5.82769231 37.6896104,4.72 C36.6844156,3.94461538 35.4558442,3.50153846 34.1155844,3.50153846 C31.6025974,3.50153846 29.4805195,5.10769231 28.6987013,7.26769231 C27.0792208,8.37538462 23.8961039,10.2030769 20.6012987,11.0892308 C16.6922078,12.0861538 12.6714286,11.1446154 9.87922078,11.3107692 C6.36103896,11.4769231 4.23896104,14.08 4.35064935,17.0153846 C4.46233766,20.0615385 6.52857143,22.7753846 6.52857143,25.6 C6.52857143,27.8153846 4.68571429,28.8123077 3.45714286,28.8123077 C1.94935065,28.8123077 1.83766234,28.2030769 1.39090909,28.2030769 C1.22337662,28.2030769 1,28.3692308 1,28.5907692 C1,29.3661538 2.84285714,30.0307692 3.9038961,30.0307692 C6.6961039,30.0307692 7.86883117,28.0369231 7.86883117,28.0369231 C7.86883117,28.0369231 8.59480519,30.0861538 11.387013,30.0861538 C13.6207792,30.0861538 14.5701299,29.0338462 14.5701299,28.1476923 C14.5701299,27.4276923 14.1233766,27.1507692 13.8441558,26.7076923 C13.3974026,26.0984615 13.3974026,25.3784615 13.3974026,25.3784615 C13.3974026,25.3784615 13.9,25.4338462 14.625974,25.4338462 C16.2454545,25.4338462 16.7480519,24.7692308 16.7480519,24.16 C16.7480519,23.3292308 15.7987013,23.3846154 15.7987013,22.0553846 C15.7987013,21.0584615 16.3571429,20.7261538 16.8597403,20.7261538 C17.4181818,20.7261538 19.4844156,20.9476923 21.9415584,21.1692308 C22.7792208,21.2246154 24.8454545,22.0553846 24.8454545,25.2123077 L24.8454545,26.3753846 C24.8454545,28.3138462 25.6272727,30.7507692 29.0896104,30.7507692 C31.4350649,30.7507692 32.7753247,29.4215385 32.7753247,28.48 C32.7753247,27.8707692 32.2168831,27.5938462 31.9376623,27.2061538 C31.1,26.2646154 31.4909091,24.7138462 31.4909091,24.7138462" id="Mask" fill="#FF600A" fill-rule="nonzero" mask="url(#mask-2)"></path>
            <path d="M30.5974026,23.4953846 L30.5960102,23.524926 C30.5680626,23.9192608 30.145414,27.0261538 31.7142857,28.3138462 C30.8803463,29.7095385 28.3924271,29.4648615 28.064411,29.4260349 L28.0285714,29.4215385 C28.7545455,29.2 29.7038961,28.8123077 30.2064935,28.3138462 C29.3688312,25.2123077 30.5974026,23.4953846 30.5974026,23.4953846 L30.5974026,23.4953846 Z M15.0727273,19.0646154 C15.7428571,19.0646154 16.412987,19.1753846 16.9714286,19.4523077 C16.9714286,19.4523077 13.3974026,19.0092308 12.1688312,22.1661538 C11.2632503,24.4563825 12.1565936,26.7102006 12.5270284,27.4810235 L12.5934553,27.6149862 C12.6418544,27.7094297 12.6714286,27.76 12.6714286,27.76 C11.6103896,26.9292308 10.8844156,25.6 10.7727273,24.0492308 C10.7168831,21.3907692 12.6155844,19.1753846 15.0727273,19.0646154 Z M15.7428571,22.8861538 C15.7428571,22.8861538 15.9910534,23.2061538 16.1896104,23.4523077 L16.3245671,23.6169231 C16.3633478,23.6630769 16.3943723,23.6984615 16.412987,23.7169231 L16.412987,23.7169231 C16.3575003,23.7945502 15.6691429,24.7005538 13.9,24.3815385 C13.9,24.3815385 15.9662338,23.9938462 15.7428571,22.8861538 Z M33.8363636,21.9446154 L33.9824519,22.0988062 C34.1915325,22.2902154 34.4506494,22.432 34.674026,22.6092308 C34.674026,22.9969231 33.8363636,23.9384615 32.3285714,23.6615385 C32.3285714,23.6615385 34.5064935,23.1630769 33.8363636,21.9446154 L33.8363636,21.9446154 Z M18.2558442,12.64 C19.1277741,16.4773497 21.9141717,19.1543746 24.1240545,20.9284167 C24.8393765,21.3940355 25.5963116,21.7946824 26.3532468,22.1107692 C25.3223908,21.70182 24.3391077,21.1985083 23.4033973,20.600834 C21.0590984,19.2202181 18.6448495,16.6081818 15.9662338,15.1323077 C12.7831169,13.36 9.6,13.1384615 7.86883117,14.6338462 C6.36103896,15.9630769 6.47272727,17.8461538 6.75194805,18.9538462 C6.08181818,18.2892308 5.63506494,17.2923077 5.63506494,16.24 C5.63506494,14.1353846 7.36623377,12.5292308 9.48831169,12.4184615 C11.6662338,12.3076923 15.687013,12.9723077 18.2558442,12.64 Z M31.8818182,21.2246154 C32.1285532,21.2246154 32.3285714,21.4229877 32.3285714,21.6676923 C32.3285714,21.9123969 32.1285532,22.1107692 31.8818182,22.1107692 C31.6350832,22.1107692 31.4350649,21.9123969 31.4350649,21.6676923 C31.4350649,21.4229877 31.6350832,21.2246154 31.8818182,21.2246154 Z M29.2012987,20.7815385 C29.4480337,20.7815385 29.6480519,20.9799108 29.6480519,21.2246154 C29.6480519,21.46932 29.4480337,21.6676923 29.2012987,21.6676923 C28.9545637,21.6676923 28.7545455,21.46932 28.7545455,21.2246154 C28.7545455,20.9799108 28.9545637,20.7815385 29.2012987,20.7815385 Z M26.6883117,19.8953846 C26.9350467,19.8953846 27.1350649,20.0937569 27.1350649,20.3384615 C27.1350649,20.5831662 26.9350467,20.7815385 26.6883117,20.7815385 C26.4415767,20.7815385 26.2415584,20.5831662 26.2415584,20.3384615 C26.2415584,20.0937569 26.4415767,19.8953846 26.6883117,19.8953846 Z M22.3883117,11.8092308 C23.2818182,13.9692308 23.7285714,14.8553846 25.4038961,16.5723077 C27.6376623,18.9538462 30.9324675,19.7846154 32.7194805,19.84 C31.2116883,19.9507692 27.4142857,19.2861538 24.7896104,16.5723077 C23.3376623,15.0769231 22.2207792,13.4707692 21.774026,12.0307692 C21.6623377,11.8646154 21.774026,11.6430769 21.9415584,11.5876923 C22.1090909,11.5323077 22.2766234,11.6430769 22.3883117,11.8092308 Z M24.4545455,18.4 C24.7012805,18.4 24.9012987,18.5983723 24.9012987,18.8430769 C24.9012987,19.0877816 24.7012805,19.2861538 24.4545455,19.2861538 C24.2078104,19.2861538 24.0077922,19.0877816 24.0077922,18.8430769 C24.0077922,18.5983723 24.2078104,18.4 24.4545455,18.4 Z M32.2168831,17.6246154 C32.4636181,17.6246154 32.6636364,17.8229877 32.6636364,18.0676923 C32.6636364,18.3123969 32.4636181,18.5107692 32.2168831,18.5107692 C31.9701481,18.5107692 31.7701299,18.3123969 31.7701299,18.0676923 C31.7701299,17.8229877 31.9701481,17.6246154 32.2168831,17.6246154 Z M29.5922078,16.7938462 C29.8389428,16.7938462 30.038961,16.9922184 30.038961,17.2369231 C30.038961,17.4816277 29.8389428,17.68 29.5922078,17.68 C29.3454728,17.68 29.1454545,17.4816277 29.1454545,17.2369231 C29.1454545,16.9922184 29.3454728,16.7938462 29.5922078,16.7938462 Z M22.6675325,16.6830769 C22.9142675,16.6830769 23.1142857,16.8814492 23.1142857,17.1261538 C23.1142857,17.3708585 22.9142675,17.5692308 22.6675325,17.5692308 C22.4207975,17.5692308 22.2207792,17.3708585 22.2207792,17.1261538 C22.2207792,16.8814492 22.4207975,16.6830769 22.6675325,16.6830769 Z M27.2467532,15.3538462 C27.4934883,15.3538462 27.6935065,15.5522184 27.6935065,15.7969231 C27.6935065,16.0416277 27.4934883,16.24 27.2467532,16.24 C27.0000182,16.24 26.8,16.0416277 26.8,15.7969231 C26.8,15.5522184 27.0000182,15.3538462 27.2467532,15.3538462 Z M25.8506494,10.1476923 C26.3532468,11.2553846 27.0233766,12.4184615 28.1402597,13.5261538 C29.7597403,15.0769231 31.6584416,15.9630769 33.3896104,16.1846154 C31.3233766,16.0738462 29.0337662,15.0215385 27.1909091,13.1938462 C26.3532468,12.3076923 25.6831169,11.4215385 25.2922078,10.48 C25.1805195,10.3138462 25.2363636,10.0923077 25.4038961,10.0369231 C25.5714286,9.92615385 25.7948052,9.98153846 25.8506494,10.1476923 Z M21.2155844,14.5784615 C21.4623194,14.5784615 21.6623377,14.7768338 21.6623377,15.0215385 C21.6623377,15.2662431 21.4623194,15.4646154 21.2155844,15.4646154 C20.9688494,15.4646154 20.7688312,15.2662431 20.7688312,15.0215385 C20.7688312,14.7768338 20.9688494,14.5784615 21.2155844,14.5784615 Z M33.3337662,14.08 C33.5805012,14.08 33.7805195,14.2783723 33.7805195,14.5230769 C33.7805195,14.7677816 33.5805012,14.9661538 33.3337662,14.9661538 C33.0870312,14.9661538 32.887013,14.7677816 32.887013,14.5230769 C32.887013,14.2783723 33.0870312,14.08 33.3337662,14.08 Z M25.4597403,13.36 C25.7064753,13.36 25.9064935,13.5583723 25.9064935,13.8030769 C25.9064935,14.0477816 25.7064753,14.2461538 25.4597403,14.2461538 C25.2130053,14.2461538 25.012987,14.0477816 25.012987,13.8030769 C25.012987,13.5583723 25.2130053,13.36 25.4597403,13.36 Z M31.1,12.9723077 C31.346735,12.9723077 31.5467532,13.17068 31.5467532,13.4153846 C31.5467532,13.6600892 31.346735,13.8584615 31.1,13.8584615 C30.853265,13.8584615 30.6532468,13.6600892 30.6532468,13.4153846 C30.6532468,13.17068 30.853265,12.9723077 31.1,12.9723077 Z M37.4662338,13.0830769 C37.5779221,13.0830769 37.6896104,13.1938462 37.6896104,13.3046154 C37.6896104,13.4153846 37.5779221,13.5261538 37.4662338,13.5261538 C37.3545455,13.5261538 37.2428571,13.4707692 37.2428571,13.3046154 C37.2428571,13.1938462 37.3545455,13.0830769 37.4662338,13.0830769 Z M20.2662338,12.3076923 C20.5129688,12.3076923 20.712987,12.5060646 20.712987,12.7507692 C20.712987,12.9954739 20.5129688,13.1938462 20.2662338,13.1938462 C20.0194988,13.1938462 19.8194805,12.9954739 19.8194805,12.7507692 C19.8194805,12.5060646 20.0194988,12.3076923 20.2662338,12.3076923 Z M29.0337662,8.48615385 C29.5363636,9.48307692 30.2623377,10.5353846 31.3792208,11.4215385 C32.6077922,12.3630769 33.8363636,12.9169231 34.8974026,13.1384615 C33.7805195,13.0830769 32.3285714,12.5292308 30.9324675,11.5876923 C29.8155844,10.7569231 28.9220779,9.76 28.4753247,8.81846154 C28.3636364,8.65230769 28.4194805,8.43076923 28.587013,8.37538462 C28.7545455,8.26461538 28.9779221,8.32 29.0337662,8.48615385 Z M38.1922078,12.2523077 C38.3038961,12.2523077 38.4155844,12.3630769 38.4155844,12.4738462 C38.4155844,12.5846154 38.3038961,12.6953846 38.1922078,12.6953846 C38.0805195,12.7507692 37.9688312,12.64 37.9688312,12.5292308 C37.9688312,12.4184615 38.0805195,12.3076923 38.1922078,12.2523077 Z M28.9779221,11.3107692 C29.2246571,11.3107692 29.4246753,11.5091415 29.4246753,11.7538462 C29.4246753,11.9985508 29.2246571,12.1969231 28.9779221,12.1969231 C28.7311871,12.1969231 28.5311688,11.9985508 28.5311688,11.7538462 C28.5311688,11.5091415 28.7311871,11.3107692 28.9779221,11.3107692 Z M24.1753247,11.2 C24.4220597,11.2 24.6220779,11.3983723 24.6220779,11.6430769 C24.6220779,11.8877816 24.4220597,12.0861538 24.1753247,12.0861538 C23.9285897,12.0861538 23.7285714,11.8877816 23.7285714,11.6430769 C23.7285714,11.3983723 23.9285897,11.2 24.1753247,11.2 Z M35.1766234,11.1446154 C35.4233584,11.1446154 35.6233766,11.3429877 35.6233766,11.5876923 C35.6233766,11.8323969 35.4233584,12.0307692 35.1766234,12.0307692 C34.9298884,12.0307692 34.7298701,11.8323969 34.7298701,11.5876923 C34.7298701,11.3429877 34.9298884,11.1446154 35.1766234,11.1446154 Z M38.8623377,11.4215385 C38.974026,11.4215385 39.0857143,11.5323077 39.1415584,11.6430769 C39.1415584,11.7538462 39.0298701,11.8646154 38.9181818,11.92 C38.7506494,11.92 38.638961,11.8092308 38.638961,11.6984615 C38.638961,11.5876923 38.7506494,11.4769231 38.8623377,11.4215385 Z M37.1311688,10.8123077 C37.347062,10.8123077 37.5220779,10.9858835 37.5220779,11.2 C37.5220779,11.4141165 37.347062,11.5876923 37.1311688,11.5876923 C36.9152757,11.5876923 36.7402597,11.4141165 36.7402597,11.2 C36.7402597,10.9858835 36.9152757,10.8123077 37.1311688,10.8123077 Z M33.0545455,10.4246154 C33.3012805,10.4246154 33.5012987,10.6229877 33.5012987,10.8676923 C33.5012987,11.1123969 33.3012805,11.3107692 33.0545455,11.3107692 C32.8078104,11.3107692 32.6077922,11.1123969 32.6077922,10.8676923 C32.6077922,10.6229877 32.8078104,10.4246154 33.0545455,10.4246154 Z M39.4766234,10.6461538 C39.5883117,10.6461538 39.7,10.7569231 39.7,10.8676923 C39.7,10.9784615 39.5883117,11.0892308 39.4766234,11.1446154 C39.3649351,11.0892308 39.2532468,10.9784615 39.2532468,10.8676923 C39.2532468,10.7569231 39.3649351,10.6461538 39.4766234,10.6461538 Z M38.5831169,9.59384615 C38.79901,9.59384615 38.974026,9.76742191 38.974026,9.98153846 C38.974026,10.195655 38.79901,10.3692308 38.5831169,10.3692308 C38.3672238,10.3692308 38.1922078,10.195655 38.1922078,9.98153846 C38.1922078,9.76742191 38.3672238,9.59384615 38.5831169,9.59384615 Z M40.0909091,9.76 C40.2025974,9.76 40.3142857,9.87076923 40.3142857,9.98153846 C40.3142857,10.0923077 40.2025974,10.2030769 40.0909091,10.2584615 C39.9792208,10.2584615 39.8675325,10.1476923 39.8675325,9.98153846 C39.8675325,9.87076923 39.9792208,9.76 40.0909091,9.76 Z M27.525974,9.31692308 C27.772709,9.31692308 27.9727273,9.51529537 27.9727273,9.76 C27.9727273,10.0047046 27.772709,10.2030769 27.525974,10.2030769 C27.279239,10.2030769 27.0792208,10.0047046 27.0792208,9.76 C27.0792208,9.51529537 27.279239,9.31692308 27.525974,9.31692308 Z M38.4155844,7.65538462 C38.4155844,8.04307692 37.912987,10.0369231 35.6233766,10.0923077 C34.7298701,10.0923077 34.0597403,9.92615385 33.612987,9.59384615 C33.4454545,9.48307692 33.3896104,9.31692308 33.4454545,9.15076923 C33.5571429,8.98461538 33.7805195,8.92923077 33.9480519,8.98461538 C34.3948052,9.26153846 35.0649351,9.53846154 35.9025974,9.59384615 C37.7454545,9.64923077 38.3597403,8.20923077 38.4155844,7.65538462 Z M31.4909091,9.09538462 C31.7376441,9.09538462 31.9376623,9.29375691 31.9376623,9.53846154 C31.9376623,9.78316617 31.7376441,9.98153846 31.4909091,9.98153846 C31.2441741,9.98153846 31.0441558,9.78316617 31.0441558,9.53846154 C31.0441558,9.29375691 31.2441741,9.09538462 31.4909091,9.09538462 Z M40.4818182,9.04 C40.5935065,9.04 40.7051948,9.15076923 40.7051948,9.26153846 C40.7051948,9.37230769 40.5935065,9.48307692 40.4818182,9.53846154 C40.425974,9.48307692 40.3142857,9.37230769 40.2584416,9.26153846 C40.2584416,9.15076923 40.3701299,9.04 40.4818182,9.04 Z M36.2376623,5.66153846 C37.3545455,5.88307692 38.0805195,6.76923077 37.912987,7.65538462 C37.7454545,8.54153846 36.7402597,9.15076923 35.6233766,8.92923077 C34.5623377,8.70769231 33.7805195,7.82153846 33.9480519,6.93538462 C34.1155844,6.04923077 35.1207792,5.44 36.2376623,5.66153846 Z M39.2532468,8.26461538 C39.4074561,8.26461538 39.5324675,8.38859807 39.5324675,8.54153846 C39.5324675,8.69447885 39.4074561,8.81846154 39.2532468,8.81846154 C39.0990374,8.81846154 38.974026,8.69447885 38.974026,8.54153846 C38.974026,8.38859807 39.0990374,8.26461538 39.2532468,8.26461538 Z M34.7857143,7.04615385 C34.6181818,7.71076923 35.1766234,8.32 35.9584416,8.48615385 C36.5843802,8.6191798 37.1745232,8.39719531 37.4422842,7.96231445 C37.276476,8.07424142 37.0449533,8.12931174 36.7961039,8.09846154 C36.3493506,8.04307692 36.0701299,7.65538462 36.125974,7.32307692 C36.1818182,6.99076923 36.5727273,6.76923077 37.0194805,6.82461538 C37.2726407,6.856 37.4720043,6.99409231 37.5870867,7.16834667 C37.4852878,6.68570692 37.0126717,6.28910243 36.4051948,6.16 C35.6233766,5.99384615 34.8974026,6.38153846 34.7857143,7.04615385 Z M30.5974026,7.43384615 C30.8441376,7.43384615 31.0441558,7.63221845 31.0441558,7.87692308 C31.0441558,8.1216277 30.8441376,8.32 30.5974026,8.32 C30.3506676,8.32 30.1506494,8.1216277 30.1506494,7.87692308 C30.1506494,7.63221845 30.3506676,7.43384615 30.5974026,7.43384615 Z M32.4402597,7.43384615 C32.6869947,7.43384615 32.887013,7.63221845 32.887013,7.87692308 C32.887013,8.1216277 32.6869947,8.32 32.4402597,8.32 C32.1935247,8.32 31.9935065,8.1216277 31.9935065,7.87692308 C31.9935065,7.63221845 32.1935247,7.43384615 32.4402597,7.43384615 Z M39.1974026,7.10153846 C39.3090909,7.10153846 39.4207792,7.21230769 39.4207792,7.32307692 C39.4207792,7.43384615 39.3090909,7.54461538 39.1974026,7.54461538 C39.0298701,7.54461538 38.974026,7.43384615 38.974026,7.32307692 C38.974026,7.21230769 39.0857143,7.10153846 39.1974026,7.10153846 Z M30.7649351,5.88307692 C30.9883117,5.88307692 31.1558442,6.04923077 31.1558442,6.27076923 C31.1558442,6.49230769 30.9883117,6.65846154 30.7649351,6.65846154 C30.5415584,6.60307692 30.374026,6.43692308 30.374026,6.27076923 C30.374026,6.04923077 30.5415584,5.88307692 30.7649351,5.88307692 Z M35.0649351,4.49846154 C36.5168831,4.55384615 37.8012987,5.44 38.3597403,6.65846154 C37.8012987,5.71692308 36.7961039,5.05230769 35.6233766,5.05230769 C34.5623377,5.05230769 33.612987,5.60615385 33.0545455,6.38153846 C32.887013,6.60307692 32.5519481,6.60307692 32.3285714,6.43692308 C32.1051948,6.27076923 32.1051948,5.93846154 32.2727273,5.71692308 C32.9428571,4.99692308 33.9480519,4.49846154 35.0649351,4.49846154 Z M31.7142857,4.66461538 C31.8818182,4.66461538 31.9935065,4.77538462 31.9935065,4.94153846 C31.9935065,5.10769231 31.8818182,5.21846154 31.7142857,5.21846154 C31.6025974,5.21846154 31.4350649,5.05230769 31.4350649,4.94153846 C31.4350649,4.77538462 31.5467532,4.66461538 31.7142857,4.66461538 Z M33.1103896,4.05538462 C33.2220779,4.05538462 33.3337662,4.16615385 33.3337662,4.27692308 C33.3337662,4.38769231 33.2220779,4.49846154 33.1103896,4.49846154 C32.9987013,4.55384615 32.887013,4.44307692 32.887013,4.27692308 C32.887013,4.16615385 32.9987013,4.05538462 33.1103896,4.05538462 Z" id="Combined-fill" fill="#FFFFFF" fill-rule="nonzero" mask="url(#mask-2)"></path>
        </g>
        <path d="M49.1218173,26.9094127 C49.7193808,26.9094127 50.1757232,26.7921137 50.4908446,26.5575158 C50.805966,26.3229178 50.9635267,25.9733437 50.9635267,25.5087933 C50.9635267,25.2579361 50.886497,25.0326291 50.7324377,24.8328725 C50.5783783,24.6331158 50.384637,24.4937507 50.1512138,24.4147771 C50.3566263,24.3404491 50.5258581,24.2092136 50.6589094,24.0210707 C50.7919606,23.8329278 50.8584862,23.620396 50.8584862,23.3834753 C50.8584862,22.9282159 50.6962571,22.5890941 50.3717988,22.3661099 C50.0473405,22.1431258 49.590998,22.0316337 49.0027714,22.0316337 L49.0027714,22.0316337 L47,22.0316337 L47,26.9094127 L49.1218173,26.9094127 Z M48.9747606,24.0245548 L47.9733749,24.0245548 L47.9733749,22.8887291 L48.9747606,22.8887291 C49.2502001,22.8887291 49.4637823,22.9293773 49.6155075,23.0106736 C49.7672326,23.0919699 49.8430951,23.2394647 49.8430951,23.4531578 C49.8430951,23.6714965 49.7683997,23.821314 49.6190088,23.9026103 C49.4696179,23.9839066 49.2548685,24.0245548 48.9747606,24.0245548 L48.9747606,24.0245548 Z M49.0727984,26.0523172 L47.9733749,26.0523172 L47.9733749,24.8816503 L49.0727984,24.8816503 C49.3622432,24.8816503 49.580494,24.9246212 49.7275506,25.010563 C49.8746073,25.0965048 49.9481356,25.2463223 49.9481356,25.4600155 C49.9481356,25.6829997 49.8746073,25.8374627 49.7275506,25.9234045 C49.580494,26.0093463 49.3622432,26.0523172 49.0727984,26.0523172 L49.0727984,26.0523172 Z M52.2940392,26.9094127 L52.7212037,25.773587 L54.8150102,25.773587 L55.2421748,26.9094127 L56.2855767,26.9094127 L54.3738403,22.0316337 L53.1833817,22.0316337 L51.2786481,26.9094127 L52.2940392,26.9094127 Z M54.4788808,24.874682 L53.0573332,24.874682 L53.7716083,22.993253 L54.4788808,24.874682 Z M57.8891944,26.9094127 L57.8961971,23.648269 L60.3821546,26.9094127 L61.299508,26.9094127 L61.299508,22.0316337 L60.3191303,22.0316337 L60.3191303,25.2858091 L57.8261701,22.0316337 L56.9158194,22.0316337 L56.9158194,26.9094127 L57.8891944,26.9094127 Z M63.3863118,26.9094127 L63.3863118,24.902555 L63.8414871,24.902555 L65.5851587,26.9094127 L66.8526469,26.9094127 L64.6397946,24.4078089 L66.6985876,22.0316337 L65.4731156,22.0316337 L63.8484898,24.00365 L63.3863118,24.00365 L63.3863118,22.0316337 L62.4129368,22.0316337 L62.4129368,26.9094127 L63.3863118,26.9094127 Z M71.3763894,27 C71.8712467,27 72.3147509,26.8908307 72.7069019,26.672492 C73.099053,26.4541533 73.4048374,26.1521956 73.6242553,25.7666187 C73.8436731,25.3810419 73.953382,24.9490101 73.953382,24.4705232 C73.953382,23.9920363 73.8436731,23.5600044 73.6242553,23.1744276 C73.4048374,22.7888508 73.099053,22.486893 72.7069019,22.2685544 C72.3147509,22.0502157 71.8712467,21.9410463 71.3763894,21.9410463 C70.8815321,21.9410463 70.438028,22.0502157 70.0458769,22.2685544 C69.6537259,22.486893 69.3479414,22.7888508 69.1285236,23.1744276 C68.9091057,23.5600044 68.7993968,23.9920363 68.7993968,24.4705232 C68.7993968,24.9490101 68.9091057,25.3810419 69.1285236,25.7666187 C69.3479414,26.1521956 69.6537259,26.4541533 70.0458769,26.672492 C70.438028,26.8908307 70.8815321,27 71.3763894,27 Z M71.3763894,26.0662537 C71.0776077,26.0662537 70.8103381,25.9988939 70.5745806,25.8641743 C70.3388231,25.7294547 70.1544187,25.5413118 70.0213675,25.2997456 C69.8883162,25.0581794 69.8217906,24.7817719 69.8217906,24.4705232 C69.8217906,24.1592744 69.8883162,23.8828669 70.0213675,23.6413007 C70.1544187,23.3997345 70.3388231,23.2115916 70.5745806,23.076872 C70.8103381,22.9421524 71.0776077,22.8747926 71.3763894,22.8747926 C71.6751712,22.8747926 71.9424408,22.9421524 72.1781983,23.076872 C72.4139557,23.2115916 72.5983601,23.3997345 72.7314114,23.6413007 C72.8644626,23.8828669 72.9309882,24.1592744 72.9309882,24.4705232 C72.9309882,24.7817719 72.8644626,25.0581794 72.7314114,25.2997456 C72.5983601,25.5413118 72.4139557,25.7294547 72.1781983,25.8641743 C71.9424408,25.9988939 71.6751712,26.0662537 71.3763894,26.0662537 Z M75.8090968,26.9094127 L75.8090968,24.930428 L78.2670436,24.930428 L78.2670436,24.0384913 L75.8090968,24.0384913 L75.8090968,22.9235704 L78.4351083,22.9235704 L78.4351083,22.0316337 L74.8357219,22.0316337 L74.8357219,26.9094127 L75.8090968,26.9094127 Z M83.3860154,27 C83.8435249,27 84.2543498,26.8931534 84.6184901,26.6794602 C84.9826303,26.4657671 85.2674067,26.1672934 85.4728192,25.7840394 C85.6782316,25.4007853 85.7809378,24.9652693 85.7809378,24.4774914 C85.7809378,24.3567083 85.7762694,24.2637983 85.7669324,24.1987612 L85.7669324,24.1987612 L83.5120639,24.1987612 L83.5120639,25.0140471 L84.758544,25.0140471 C84.6931855,25.3624599 84.5437946,25.628415 84.3103714,25.8119124 C84.0769482,25.9954098 83.7618268,26.0871585 83.3650073,26.0871585 C83.0802309,26.0871585 82.8222982,26.0209601 82.5912092,25.8885632 C82.3601202,25.7561664 82.1768829,25.5680234 82.0414975,25.3241345 C81.906112,25.0802455 81.8384192,24.7957084 81.8384192,24.4705232 C81.8384192,24.1592744 81.9049449,23.8805442 82.0379961,23.6343325 C82.1710474,23.3881208 82.3554517,23.1976551 82.5912092,23.0629355 C82.8269667,22.9282159 83.0919021,22.8608561 83.3860154,22.8608561 C83.6287755,22.8608561 83.8505276,22.9061498 84.0512716,22.9967371 C84.2520156,23.0873244 84.4247488,23.2139144 84.5694712,23.376507 L84.5694712,23.376507 L85.2697409,22.6866497 C85.0503231,22.449729 84.7818864,22.2662316 84.4644307,22.1361575 C84.1469751,22.0060834 83.7968403,21.9410463 83.4140261,21.9410463 C82.9191689,21.9410463 82.4744976,22.0490543 82.0800123,22.2650702 C81.685527,22.4810862 81.3774083,22.7807212 81.1556563,23.1639752 C80.9339042,23.5472293 80.8230281,23.9827453 80.8230281,24.4705232 C80.8230281,24.9768831 80.9397398,25.4216901 81.173163,25.8049441 C81.4065862,26.1881982 81.7193734,26.4831877 82.1115244,26.6899126 C82.5036755,26.8966375 82.9285058,27 83.3860154,27 Z M90.3256884,26.9094127 L90.3256884,26.0174759 L87.6366526,26.0174759 L87.6366526,24.8955868 L90.1716291,24.8955868 L90.1716291,24.00365 L87.6366526,24.00365 L87.6366526,22.9235704 L90.2976776,22.9235704 L90.2976776,22.0316337 L86.6632777,22.0316337 L86.6632777,26.9094127 L90.3256884,26.9094127 Z M93.6309616,27 C94.1258188,27 94.569323,26.8908307 94.961474,26.672492 C95.3536251,26.4541533 95.6594096,26.1521956 95.8788274,25.7666187 C96.0982453,25.3810419 96.2079542,24.9490101 96.2079542,24.4705232 C96.2079542,23.9920363 96.0982453,23.5600044 95.8788274,23.1744276 C95.6594096,22.7888508 95.3536251,22.486893 94.961474,22.2685544 C94.569323,22.0502157 94.1258188,21.9410463 93.6309616,21.9410463 C93.1361043,21.9410463 92.6926001,22.0502157 92.3004491,22.2685544 C91.908298,22.486893 91.6025136,22.7888508 91.3830957,23.1744276 C91.1636779,23.5600044 91.0539689,23.9920363 91.0539689,24.4705232 C91.0539689,24.9490101 91.1636779,25.3810419 91.3830957,25.7666187 C91.6025136,26.1521956 91.908298,26.4541533 92.3004491,26.672492 C92.6926001,26.8908307 93.1361043,27 93.6309616,27 Z M93.6309616,26.0662537 C93.3321798,26.0662537 93.0649102,25.9988939 92.8291527,25.8641743 C92.5933952,25.7294547 92.4089909,25.5413118 92.2759396,25.2997456 C92.1428884,25.0581794 92.0763627,24.7817719 92.0763627,24.4705232 C92.0763627,24.1592744 92.1428884,23.8828669 92.2759396,23.6413007 C92.4089909,23.3997345 92.5933952,23.2115916 92.8291527,23.076872 C93.0649102,22.9421524 93.3321798,22.8747926 93.6309616,22.8747926 C93.9297433,22.8747926 94.1970129,22.9421524 94.4327704,23.076872 C94.6685279,23.2115916 94.8529322,23.3997345 94.9859835,23.6413007 C95.1190347,23.8828669 95.1855604,24.1592744 95.1855604,24.4705232 C95.1855604,24.7817719 95.1190347,25.0581794 94.9859835,25.2997456 C94.8529322,25.5413118 94.6685279,25.7294547 94.4327704,25.8641743 C94.1970129,25.9988939 93.9297433,26.0662537 93.6309616,26.0662537 Z M98.063669,26.9094127 L98.063669,24.9652693 L98.3507796,24.9652693 L99.7793298,26.9094127 L100.962786,26.9094127 L99.4572057,24.9513328 L99.5062246,24.9513328 C99.9590657,24.9095233 100.313869,24.7597058 100.570635,24.5018803 C100.8274,24.2440549 100.955783,23.9153855 100.955783,23.5158721 C100.955783,23.0466763 100.801724,22.6820042 100.493605,22.421856 C100.185486,22.1617078 99.7419821,22.0316337 99.1630925,22.0316337 L99.1630925,22.0316337 L97.090294,22.0316337 L97.090294,26.9094127 L98.063669,26.9094127 Z M99.1420844,24.1221104 L98.063669,24.1221104 L98.063669,22.9235704 L99.1420844,22.9235704 C99.6836263,22.9235704 99.9543972,23.1210043 99.9543972,23.5158721 C99.9543972,23.920031 99.6836263,24.1221104 99.1420844,24.1221104 L99.1420844,24.1221104 Z M104.163018,27 C104.620528,27 105.031353,26.8931534 105.395493,26.6794602 C105.759633,26.4657671 106.04441,26.1672934 106.249822,25.7840394 C106.455235,25.4007853 106.557941,24.9652693 106.557941,24.4774914 C106.557941,24.3567083 106.553272,24.2637983 106.543935,24.1987612 L106.543935,24.1987612 L104.289067,24.1987612 L104.289067,25.0140471 L105.535547,25.0140471 C105.470189,25.3624599 105.320798,25.628415 105.087374,25.8119124 C104.853951,25.9954098 104.53883,26.0871585 104.14201,26.0871585 C103.857234,26.0871585 103.599301,26.0209601 103.368212,25.8885632 C103.137123,25.7561664 102.953886,25.5680234 102.8185,25.3241345 C102.683115,25.0802455 102.615422,24.7957084 102.615422,24.4705232 C102.615422,24.1592744 102.681948,23.8805442 102.814999,23.6343325 C102.94805,23.3881208 103.132455,23.1976551 103.368212,23.0629355 C103.60397,22.9282159 103.868905,22.8608561 104.163018,22.8608561 C104.405779,22.8608561 104.627531,22.9061498 104.828275,22.9967371 C105.029019,23.0873244 105.201752,23.2139144 105.346474,23.376507 L105.346474,23.376507 L106.046744,22.6866497 C105.827326,22.449729 105.558889,22.2662316 105.241434,22.1361575 C104.923978,22.0060834 104.573843,21.9410463 104.191029,21.9410463 C103.696172,21.9410463 103.251501,22.0490543 102.857015,22.2650702 C102.46253,22.4810862 102.154411,22.7807212 101.932659,23.1639752 C101.710907,23.5472293 101.600031,23.9827453 101.600031,24.4705232 C101.600031,24.9768831 101.716743,25.4216901 101.950166,25.8049441 C102.183589,26.1881982 102.496376,26.4831877 102.888527,26.6899126 C103.280678,26.8966375 103.705509,27 104.163018,27 Z M108.413656,26.9094127 L108.413656,22.0316337 L107.440281,22.0316337 L107.440281,26.9094127 L108.413656,26.9094127 Z M110.066292,26.9094127 L110.493457,25.773587 L112.587263,25.773587 L113.014428,26.9094127 L114.05783,26.9094127 L112.146093,22.0316337 L110.955635,22.0316337 L109.050901,26.9094127 L110.066292,26.9094127 Z M112.251134,24.874682 L110.829586,24.874682 L111.543861,22.993253 L112.251134,24.874682 Z M50.0921911,16.9497843 C50.7010923,16.9497843 51.2458021,16.8366331 51.7263205,16.6103307 C52.2068389,16.3840283 52.580983,16.07195 52.8487529,15.6740958 C53.1165227,15.2762416 53.2504076,14.8218117 53.2504076,14.3108063 C53.2504076,13.8728017 53.1825481,13.5169229 53.0468291,13.24317 C52.9111102,12.9694171 52.7258722,12.7011393 52.4911151,12.4383365 C52.3517281,12.2704347 52.2526899,12.1408583 52.1940007,12.0496073 C52.1353114,11.9583564 52.1022987,11.8579803 52.0949625,11.7484792 L52.0949625,11.7484792 L50.5543691,11.7484792 C50.5543691,12.0331822 50.6038882,12.2686097 50.7029263,12.4547616 C50.8019645,12.6409136 50.9505217,12.8471408 51.148598,13.0734432 C51.3173296,13.2851454 51.4438784,13.4658224 51.5282442,13.615474 C51.61261,13.7651255 51.654793,13.9458025 51.654793,14.1575047 C51.654793,14.5882093 51.5135719,14.9240128 51.2311298,15.1649154 C50.9486876,15.4058179 50.5690414,15.5262692 50.0921911,15.5262692 C49.6006684,15.5262692 49.2191881,15.3729676 48.9477502,15.0663643 C48.6763124,14.7597611 48.5405934,14.2925561 48.5405934,13.6647495 L48.5405934,13.6647495 L48.5405934,9.14235151 L47,9.14235151 L47,13.7414003 C47,14.7780113 47.278774,15.5718947 47.8363221,16.1230505 C48.3938702,16.6742064 49.1458265,16.9497843 50.0921911,16.9497843 Z M57.3109716,16.9497843 C57.927209,16.9497843 58.4737529,16.8329831 58.9506032,16.5993806 C59.4274535,16.3657781 59.7979296,16.0263245 60.0620313,15.5810198 C60.326133,15.1357151 60.4581839,14.6064595 60.4581839,13.993253 C60.4581839,13.526048 60.3903244,13.1227187 60.2546055,12.7832651 C60.1188865,12.4438115 59.953823,12.1609335 59.7594147,11.9346311 C59.5650065,11.7083287 59.3137431,11.4564761 59.0056244,11.1790731 C58.7708673,10.9600708 58.5856293,10.7775689 58.4499103,10.6315673 C58.3141914,10.4855658 58.202315,10.319489 58.1142811,10.133337 C58.0262471,9.94718505 57.9822302,9.73730782 57.9822302,9.50370534 L57.9822302,9.50370534 L57.9822302,9.14235151 L56.4416368,9.14235151 L56.4416368,9.6132065 C56.4416368,9.96361022 56.5003261,10.2793386 56.6177046,10.5603915 C56.7350831,10.8414445 56.8799723,11.0859971 57.052372,11.2940493 C57.2247718,11.5021015 57.4540267,11.7521292 57.7401369,12.0441323 C58.1142811,12.4237363 58.3948891,12.7558898 58.5819612,13.0405929 C58.7690333,13.3252959 58.8625693,13.6537994 58.8625693,14.0261033 C58.8625693,14.4933083 58.7231823,14.8601372 58.4444082,15.12659 C58.1656342,15.3930428 57.787822,15.5262692 57.3109716,15.5262692 C56.819449,15.5262692 56.4361347,15.3729676 56.1610287,15.0663643 C55.8859227,14.7597611 55.7483697,14.2925561 55.7483697,13.6647495 L55.7483697,13.6647495 L55.7483697,13.2486451 L54.2077763,13.2486451 L54.2077763,13.7414003 C54.2077763,14.7780113 54.4883844,15.5718947 55.0496006,16.1230505 C55.6108168,16.6742064 56.3646071,16.9497843 57.3109716,16.9497843 Z M64.5077437,16.9497843 C65.4394359,16.9497843 66.180388,16.6742064 66.7305999,16.1230505 C67.2808119,15.5718947 67.5559178,14.7780113 67.5559178,13.7414003 L67.5559178,13.7414003 L67.5559178,9.14235151 L66.0153244,9.14235151 L66.0153244,10.6206172 C65.8319204,10.321314 65.5898272,10.1041367 65.2890447,9.96908528 C64.9882621,9.83403385 64.6838115,9.76650813 64.3756929,9.76650813 C63.9135148,9.76650813 63.4916857,9.87235925 63.1102054,10.0840615 C62.7287251,10.2957637 62.4279426,10.5895919 62.2078578,10.9655458 C61.9877731,11.3414998 61.8777307,11.7667293 61.8777307,12.2412344 L61.8777307,12.2412344 L61.8777307,12.394536 L63.4183241,12.394536 L63.4183241,12.2412344 C63.4183241,11.920031 63.5210303,11.6499281 63.7264428,11.4309258 C63.9318552,11.2119235 64.2473101,11.1024223 64.6728073,11.1024223 C65.0542876,11.1024223 65.3734105,11.2137485 65.6301761,11.4364008 C65.8869416,11.6590532 66.0153244,12.014932 66.0153244,12.5040372 L66.0153244,12.5040372 L66.0153244,13.6647495 C66.0153244,14.2925561 65.8814395,14.7597611 65.6136697,15.0663643 C65.3458999,15.3729676 64.9772579,15.5262692 64.5077437,15.5262692 C64.060238,15.5262692 63.6989322,15.3912178 63.4238262,15.1211149 C63.1487202,14.8510121 63.0111673,14.4750581 63.0111673,13.993253 L63.0111673,13.993253 L63.0111673,13.5771485 L61.4705739,13.5771485 L61.4705739,14.0699038 C61.4705739,14.66121 61.5989566,15.1740405 61.8557222,15.6083951 C62.1124878,16.0427497 62.4701255,16.3749032 62.9286355,16.6048557 C63.3871454,16.8348081 63.9135148,16.9497843 64.5077437,16.9497843 Z M71.7265243,16.9497843 C72.3427617,16.9497843 72.8893055,16.8329831 73.3661559,16.5993806 C73.8430062,16.3657781 74.2134822,16.0263245 74.477584,15.5810198 C74.7416857,15.1357151 74.8737366,14.6064595 74.8737366,13.993253 C74.8737366,13.526048 74.8058771,13.1227187 74.6701581,12.7832651 C74.5344392,12.4438115 74.3693756,12.1609335 74.1749674,11.9346311 C73.9805592,11.7083287 73.7292957,11.4564761 73.421177,11.1790731 C73.18642,10.9600708 73.0011819,10.7775689 72.865463,10.6315673 C72.729744,10.4855658 72.6178676,10.319489 72.5298337,10.133337 C72.4417998,9.94718505 72.3977828,9.73730782 72.3977828,9.50370534 L72.3977828,9.50370534 L72.3977828,9.14235151 L70.8571894,9.14235151 L70.8571894,9.6132065 C70.8571894,9.96361022 70.9158787,10.2793386 71.0332573,10.5603915 C71.1506358,10.8414445 71.2955249,11.0859971 71.4679247,11.2940493 C71.6403244,11.5021015 71.8695794,11.7521292 72.1556896,12.0441323 C72.5298337,12.4237363 72.8104418,12.7558898 72.9975139,13.0405929 C73.1845859,13.3252959 73.2781219,13.6537994 73.2781219,14.0261033 C73.2781219,14.4933083 73.1387349,14.8601372 72.8599609,15.12659 C72.5811868,15.3930428 72.2033746,15.5262692 71.7265243,15.5262692 C71.2350016,15.5262692 70.8516873,15.3729676 70.5765813,15.0663643 C70.3014754,14.7597611 70.1639224,14.2925561 70.1639224,13.6647495 L70.1639224,13.6647495 L70.1639224,13.2486451 L68.623329,13.2486451 L68.623329,13.7414003 C68.623329,14.7780113 68.9039371,15.5718947 69.4651532,16.1230505 C70.0263694,16.6742064 70.7801598,16.9497843 71.7265243,16.9497843 Z M77.5917835,16.8074328 L77.5917835,14.4531578 C77.5917835,14.0151532 77.6981578,13.6811746 77.9109064,13.4512222 C78.123655,13.2212698 78.3914248,13.1062936 78.7142158,13.1062936 C79.044343,13.1062936 79.3011086,13.2139697 79.4845126,13.429322 C79.6679165,13.6446743 79.7596185,13.9458025 79.7596185,14.3327066 L79.7596185,14.3327066 L79.7596185,15.9314235 L81.3442289,15.9314235 L81.3442289,14.3436567 C81.3442289,13.9567526 81.4524372,13.6537994 81.6688539,13.434797 C81.8852706,13.2157947 82.1548745,13.1062936 82.4776655,13.1062936 C82.8077926,13.1062936 83.0627242,13.2194448 83.2424601,13.4457472 C83.422196,13.6720496 83.5120639,13.996903 83.5120639,14.4203075 L83.5120639,14.4203075 L83.5120639,16.8074328 L85.1076785,16.8074328 L85.1076785,14.2998562 C85.1076785,13.8034509 85.0031382,13.3563212 84.7940577,12.958467 C84.5849772,12.5606128 84.2933649,12.2485345 83.9192207,12.0222321 C83.5450766,11.7959297 83.1159113,11.6827785 82.6317248,11.6827785 C81.7000326,11.6827785 81.0067656,12.0842827 80.5519237,12.8872912 C80.383192,12.485787 80.1466009,12.1846588 79.8421503,11.9839066 C79.5376997,11.7831545 79.2167427,11.6827785 78.8792794,11.6827785 C78.6005054,11.6827785 78.3419058,11.7411791 78.1034806,11.8579803 C77.8650554,11.9747816 77.661477,12.1317332 77.4927454,12.3288353 C77.6027877,11.737529 77.9457532,11.2958744 78.5216417,11.0038713 C79.0975302,10.7118682 79.8329801,10.5658666 80.7279915,10.5658666 L80.7279915,10.5658666 L82.7967884,10.5658666 L82.7967884,9.14235151 L80.5079067,9.14235151 C79.73761,9.14235151 79.0168324,9.26462781 78.3455739,9.5091804 C77.6743153,9.75373299 77.1149332,10.1880876 76.6674275,10.8122442 C76.2199217,11.4364008 75.9961689,12.2850348 75.9961689,13.3581462 L75.9961689,13.3581462 L75.9961689,16.8074328 L77.5917835,16.8074328 Z M89.2122595,16.9497843 C89.7991523,16.9497843 90.3181855,16.827508 90.7693593,16.5829554 C91.2205331,16.3384028 91.5726687,15.977049 91.8257662,15.4988939 C92.0788637,15.0207389 92.2054125,14.4349076 92.2054125,13.7414003 L92.2054125,13.7414003 L92.2054125,11.9127309 C92.2054125,11.452826 92.3172889,11.0896472 92.5410417,10.8231943 C92.7647946,10.5567415 93.060075,10.4235151 93.4268829,10.4235151 C93.7936909,10.4235151 94.0908053,10.5567415 94.3182263,10.8231943 C94.5456472,11.0896472 94.6593577,11.452826 94.6593577,11.9127309 L94.6593577,11.9127309 L94.6593577,16.8074328 L96.1999511,16.8074328 L96.1999511,11.8798805 C96.1999511,11.3031744 96.0789045,10.795819 95.8368112,10.3578144 C95.594718,9.91980976 95.273761,9.58400619 94.8739403,9.35040372 C94.4741197,9.11680124 94.0467884,9 93.5919465,9 C92.5868927,9 91.8642811,9.44530472 91.4241115,10.3359142 C91.2480437,9.87600929 90.9545973,9.53838071 90.5437724,9.32302843 C90.1329475,9.10767614 89.6707695,9 89.1572383,9 C88.5923541,9 88.0898272,9.1222763 87.6496576,9.36682889 C87.2094881,9.61138148 86.8628546,9.97456034 86.6097571,10.4563654 C86.3566596,10.9381706 86.2301109,11.5221768 86.2301109,12.208384 L86.2301109,12.208384 L86.2301109,13.7414003 C86.2301109,14.4349076 86.3566596,15.0207389 86.6097571,15.4988939 C86.8628546,15.977049 87.2131562,16.3384028 87.6606619,16.5829554 C88.1081676,16.827508 88.6253668,16.9497843 89.2122595,16.9497843 Z M89.2122595,15.5262692 C88.77209,15.5262692 88.4217884,15.3729676 88.1613547,15.0663643 C87.9009211,14.7597611 87.7707043,14.2925561 87.7707043,13.6647495 L87.7707043,13.6647495 L87.7707043,12.2412344 C87.7707043,11.635328 87.9009211,11.1808981 88.1613547,10.8779449 C88.4217884,10.5749917 88.77209,10.4235151 89.2122595,10.4235151 C89.6524291,10.4235151 90.0045647,10.5749917 90.2686664,10.8779449 C90.5327682,11.1808981 90.664819,11.635328 90.664819,12.2412344 L90.664819,12.2412344 L90.664819,13.6647495 C90.664819,14.2925561 90.5327682,14.7597611 90.2686664,15.0663643 C90.0045647,15.3729676 89.6524291,15.5262692 89.2122595,15.5262692 Z M100.76671,16.9497843 C101.390284,16.9497843 101.944164,16.8494083 102.42835,16.6486561 C102.912537,16.447904 103.288515,16.1705011 103.556285,15.8164473 C103.824054,15.4623935 103.957939,15.0627143 103.957939,14.6174096 C103.957939,14.1575047 103.842395,13.7815507 103.611306,13.4895476 C103.380217,13.1975445 103.051924,13.0113925 102.626426,12.9310917 C103.44074,12.6536888 103.847897,12.1390333 103.847897,11.3871253 C103.847897,10.9564207 103.71768,10.5585665 103.457246,10.1935627 C103.196813,9.82855879 102.833673,9.53838071 102.367827,9.32302843 C101.901981,9.10767614 101.375611,9 100.788719,9 C100.172481,9 99.6204353,9.11862626 99.1325807,9.35587877 C98.6447261,9.59313129 98.2669139,9.9143347 97.9991441,10.319489 C97.7313743,10.7246433 97.5974894,11.171773 97.5974894,11.6608782 L97.5974894,11.6608782 L97.5974894,11.9346311 L99.1380828,11.9346311 L99.1380828,11.737529 C99.1380828,11.4966265 99.2041082,11.2757991 99.3361591,11.075047 C99.46821,10.8742949 99.6571161,10.7136932 99.9028774,10.5932419 C100.148639,10.4727906 100.432915,10.412565 100.755706,10.412565 C101.217884,10.412565 101.582858,10.509291 101.850628,10.7027431 C102.118397,10.8961951 102.252282,11.1425727 102.252282,11.4418759 C102.252282,11.9820816 101.870802,12.2521845 101.107842,12.2521845 L101.107842,12.2521845 L100.304532,12.2521845 L100.304532,13.6318991 L101.107842,13.6318991 C101.467313,13.6318991 101.766262,13.7030749 102.004687,13.8454264 C102.243112,13.9877779 102.362325,14.2159053 102.362325,14.5298086 C102.362325,14.8364119 102.21927,15.0809645 101.933159,15.2634664 C101.647049,15.4459684 101.254565,15.5372193 100.755706,15.5372193 C100.264183,15.5372193 99.8716987,15.4021679 99.5782524,15.132065 C99.284806,14.8619622 99.1380828,14.5188585 99.1380828,14.1027541 L99.1380828,14.1027541 L99.1380828,13.7961509 L97.5974894,13.7961509 L97.5974894,14.1794049 C97.5974894,14.7342108 97.7277062,15.221491 97.9881399,15.6412454 C98.2485735,16.0609999 98.6190496,16.3840283 99.099568,16.6103307 C99.5800864,16.8366331 100.1358,16.9497843 100.76671,16.9497843 Z M108.128546,16.9497843 C109.052902,16.9497843 109.790186,16.6742064 110.340398,16.1230505 C110.89061,15.5718947 111.165716,14.7780113 111.165716,13.7414003 L111.165716,13.7414003 L111.165716,12.208384 C111.165716,11.171773 110.89061,10.3778896 110.340398,9.82673377 C109.790186,9.27557792 109.052902,9 108.128546,9 C107.534317,9 107.006113,9.11497622 106.543935,9.34492866 C106.081757,9.5748811 105.722286,9.90703462 105.46552,10.3413892 C105.208754,10.7757438 105.080372,11.2885743 105.080372,11.8798805 L105.080372,11.8798805 L105.080372,12.0441323 L106.620965,12.0441323 L106.620965,11.9127309 C106.620965,11.452826 106.758518,11.0896472 107.033624,10.8231943 C107.30873,10.5567415 107.673704,10.4235151 108.128546,10.4235151 C108.590724,10.4235151 108.955698,10.5749917 109.223468,10.8779449 C109.491237,11.1808981 109.625122,11.635328 109.625122,12.2412344 L109.625122,12.2412344 L109.625122,13.7085499 C109.625122,14.3144564 109.491237,14.7688862 109.223468,15.0718394 C108.955698,15.3747926 108.590724,15.5262692 108.128546,15.5262692 C107.673704,15.5262692 107.30873,15.3930428 107.033624,15.12659 C106.758518,14.8601372 106.620965,14.4969583 106.620965,14.0370534 L106.620965,14.0370534 L106.620965,13.5771485 L105.080372,13.5771485 L105.080372,14.0699038 C105.080372,14.66121 105.208754,15.1740405 105.46552,15.6083951 C105.722286,16.0427497 106.081757,16.3749032 106.543935,16.6048557 C107.006113,16.8348081 107.534317,16.9497843 108.128546,16.9497843 Z M122.500082,16.8074328 L122.500082,15.3839177 L117.449136,15.3839177 C116.539452,15.3839177 115.824177,15.2780666 115.303309,15.0663643 C114.782442,14.8546621 114.410132,14.5352837 114.186379,14.1082292 C113.962626,13.6811746 113.85075,13.1245437 113.85075,12.4383365 L113.85075,12.4383365 L113.85075,11.6827785 C113.85075,11.2520739 113.953456,10.9199204 114.158869,10.6863179 C114.364281,10.4527154 114.617379,10.3359142 114.918161,10.3359142 C115.22628,10.3359142 115.472041,10.4454153 115.655445,10.6644177 C115.838849,10.88342 115.930551,11.1827232 115.930551,11.5623272 L115.930551,11.5623272 L115.930551,13.4128968 L117.471144,13.4128968 L117.471144,11.5732773 C117.471144,11.1863732 117.572017,10.88342 117.773761,10.6644177 C117.975505,10.4454153 118.223101,10.3359142 118.516547,10.3359142 C118.824666,10.3359142 119.079597,10.4472403 119.281342,10.6698927 C119.483086,10.8925451 119.583958,11.1900232 119.583958,11.5623272 L119.583958,11.5623272 L119.583958,13.4128968 L121.124552,13.4128968 L121.124552,11.5732773 C121.124552,11.1936733 121.23276,10.8925451 121.449177,10.6698927 C121.665593,10.4472403 121.924193,10.3359142 122.224976,10.3359142 C122.525758,10.3359142 122.767851,10.4508904 122.951255,10.6808428 C123.134659,10.9107953 123.226361,11.2338237 123.226361,11.6499281 L123.226361,11.6499281 L123.226361,13.6318991 L124.766955,13.6318991 L124.766955,11.6170778 C124.766955,11.1206725 124.666082,10.6735427 124.464338,10.2756885 C124.262594,9.87783431 123.981986,9.565756 123.622514,9.3394536 C123.263042,9.1131512 122.852217,9 122.390039,9 C121.964542,9 121.570223,9.09855105 121.207083,9.29565314 C120.843944,9.49275523 120.559667,9.79570844 120.354255,10.2045128 C120.200196,9.81030859 119.947098,9.51100542 119.594963,9.30660325 C119.242827,9.10220108 118.901695,9 118.571568,9 C118.212097,9 117.856293,9.10220108 117.504157,9.30660325 C117.152022,9.51100542 116.884252,9.81030859 116.700848,10.2045128 C116.532116,9.81030859 116.258844,9.51100542 115.881032,9.30660325 C115.50322,9.10220108 115.127242,9 114.753097,9 C114.290919,9 113.872758,9.1131512 113.498614,9.3394536 C113.12447,9.565756 112.82919,9.87783431 112.612773,10.2756885 C112.396356,10.6735427 112.288148,11.1206725 112.288148,11.6170778 L112.288148,11.6170778 L112.288148,12.5916381 C112.288148,14.1465546 112.768666,15.2379162 113.729703,15.8657228 C114.69074,16.4935295 115.857189,16.8074328 117.229051,16.8074328 L117.229051,16.8074328 L122.500082,16.8074328 Z M127.661069,16.8074328 L127.661069,11.7703794 C127.661069,11.3323747 127.767444,10.9983962 127.980192,10.7684438 C128.192941,10.5384913 128.460711,10.4235151 128.783502,10.4235151 C129.113629,10.4235151 129.370395,10.5311912 129.553799,10.7465435 C129.737202,10.9618958 129.828904,11.263024 129.828904,11.6499281 L129.828904,11.6499281 L129.828904,14.8364119 L131.413515,14.8364119 L131.413515,11.6608782 C131.413515,11.2739741 131.521723,10.9710209 131.73814,10.7520186 C131.954557,10.5330163 132.22416,10.4235151 132.546951,10.4235151 C132.877079,10.4235151 133.13201,10.5366663 133.311746,10.7629687 C133.491482,10.9892711 133.58135,11.3141245 133.58135,11.737529 L133.58135,11.737529 L133.58135,16.8074328 L135.176964,16.8074328 L135.176964,11.6170778 C135.176964,11.1133724 135.074258,10.6644177 134.868846,10.2702135 C134.663433,9.87600929 134.373655,9.565756 133.999511,9.3394536 C133.625367,9.1131512 133.196201,9 132.712015,9 C132.257173,9 131.846348,9.09855105 131.47954,9.29565314 C131.112732,9.49275523 130.826622,9.79570844 130.62121,10.2045128 C130.452478,9.81030859 130.177372,9.51100542 129.795892,9.30660325 C129.414411,9.10220108 129.021927,9 128.618438,9 C128.141588,9 127.708754,9.1131512 127.319938,9.3394536 C126.931122,9.565756 126.624837,9.87783431 126.401084,10.2756885 C126.177331,10.6735427 126.065455,11.1206725 126.065455,11.6170778 L126.065455,11.6170778 L126.065455,16.8074328 L127.661069,16.8074328 Z M139.842762,16.9497843 C140.451663,16.9497843 140.996373,16.8366331 141.476891,16.6103307 C141.95741,16.3840283 142.331554,16.07195 142.599323,15.6740958 C142.867093,15.2762416 143.000978,14.8218117 143.000978,14.3108063 C143.000978,13.8728017 142.933119,13.5169229 142.7974,13.24317 C142.661681,12.9694171 142.476443,12.7011393 142.241686,12.4383365 C142.102299,12.2704347 142.003261,12.1408583 141.944571,12.0496073 C141.885882,11.9583564 141.852869,11.8579803 141.845533,11.7484792 L141.845533,11.7484792 L140.30494,11.7484792 C140.30494,12.0331822 140.354459,12.2686097 140.453497,12.4547616 C140.552535,12.6409136 140.701092,12.8471408 140.899169,13.0734432 C141.0679,13.2851454 141.194449,13.4658224 141.278815,13.615474 C141.363181,13.7651255 141.405364,13.9458025 141.405364,14.1575047 C141.405364,14.5882093 141.264142,14.9240128 140.9817,15.1649154 C140.699258,15.4058179 140.319612,15.5262692 139.842762,15.5262692 C139.351239,15.5262692 138.969759,15.3729676 138.698321,15.0663643 C138.426883,14.7597611 138.291164,14.2925561 138.291164,13.6647495 L138.291164,13.6647495 L138.291164,9.14235151 L136.750571,9.14235151 L136.750571,13.7414003 C136.750571,14.7780113 137.029345,15.5718947 137.586893,16.1230505 C138.144441,16.6742064 138.896397,16.9497843 139.842762,16.9497843 Z M149.83461,16.9497843 C150.450848,16.9497843 150.995558,16.8366331 151.46874,16.6103307 C151.941922,16.3840283 152.306896,16.070125 152.563662,15.6686207 C152.820427,15.2671165 152.94881,14.8108616 152.94881,14.2998562 C152.94881,13.6720496 152.756236,13.1318438 152.371087,12.679239 C151.985939,12.2266342 151.45957,11.923681 150.791979,11.7703794 L150.791979,11.7703794 L150.791979,10.9162703 C150.791979,10.6899679 150.746128,10.5038159 150.654426,10.3578144 C150.562724,10.2118129 150.428839,10.0548612 150.252771,9.88695941 C150.106048,9.74095786 149.99784,9.61685654 149.928146,9.51465546 C149.858453,9.41245437 149.823606,9.28835306 149.823606,9.14235151 L149.823606,9.14235151 L148.283013,9.14235151 C148.283013,9.42705453 148.330698,9.65518195 148.426068,9.82673377 C148.521438,9.99828559 148.657157,10.1716624 148.833225,10.3468643 C148.972612,10.4855658 149.077152,10.6114921 149.146845,10.7246433 C149.216539,10.8377945 149.251386,10.978321 149.251386,11.1462228 L149.251386,11.1462228 L149.251386,11.6937286 C148.481089,11.7959297 147.870354,12.0824577 147.41918,12.5533127 C146.968006,13.0241677 146.742419,13.6063489 146.742419,14.2998562 C146.742419,14.8108616 146.870802,15.2671165 147.127568,15.6686207 C147.384333,16.070125 147.745639,16.3840283 148.211485,16.6103307 C148.677331,16.8366331 149.218373,16.9497843 149.83461,16.9497843 Z M149.83461,15.6138701 C149.387105,15.6138701 149.025799,15.4879438 148.750693,15.2360911 C148.475587,14.9842385 148.338034,14.65391 148.338034,14.2451056 C148.338034,13.8436014 148.475587,13.5169229 148.750693,13.2650702 C149.025799,13.0132176 149.387105,12.8872912 149.83461,12.8872912 C150.289452,12.8872912 150.65626,13.0132176 150.935034,13.2650702 C151.213808,13.5169229 151.353195,13.8436014 151.353195,14.2451056 C151.353195,14.65391 151.213808,14.9842385 150.935034,15.2360911 C150.65626,15.4879438 150.289452,15.6138701 149.83461,15.6138701 Z M157.009374,16.9497843 C157.625611,16.9497843 158.172155,16.8329831 158.649006,16.5993806 C159.125856,16.3657781 159.496332,16.0263245 159.760434,15.5810198 C160.024535,15.1357151 160.156586,14.6064595 160.156586,13.993253 C160.156586,13.526048 160.088727,13.1227187 159.953008,12.7832651 C159.817289,12.4438115 159.652225,12.1609335 159.457817,11.9346311 C159.263409,11.7083287 159.012145,11.4564761 158.704027,11.1790731 C158.46927,10.9600708 158.284032,10.7775689 158.148313,10.6315673 C158.012594,10.4855658 157.900717,10.319489 157.812683,10.133337 C157.724649,9.94718505 157.680633,9.73730782 157.680633,9.50370534 L157.680633,9.50370534 L157.680633,9.14235151 L156.140039,9.14235151 L156.140039,9.6132065 C156.140039,9.96361022 156.198728,10.2793386 156.316107,10.5603915 C156.433485,10.8414445 156.578375,11.0859971 156.750774,11.2940493 C156.923174,11.5021015 157.152429,11.7521292 157.438539,12.0441323 C157.812683,12.4237363 158.093291,12.7558898 158.280364,13.0405929 C158.467436,13.3252959 158.560972,13.6537994 158.560972,14.0261033 C158.560972,14.4933083 158.421585,14.8601372 158.142811,15.12659 C157.864037,15.3930428 157.486224,15.5262692 157.009374,15.5262692 C156.517851,15.5262692 156.134537,15.3729676 155.859431,15.0663643 C155.584325,14.7597611 155.446772,14.2925561 155.446772,13.6647495 L155.446772,13.6647495 L155.446772,13.2486451 L153.906179,13.2486451 L153.906179,13.7414003 C153.906179,14.7780113 154.186787,15.5718947 154.748003,16.1230505 C155.309219,16.6742064 156.063009,16.9497843 157.009374,16.9497843 Z M164.338197,16.9497843 C164.932426,16.9497843 165.464297,16.8366331 165.933812,16.6103307 C166.403326,16.3840283 166.770134,16.070125 167.034235,15.6686207 C167.298337,15.2671165 167.430388,14.8108616 167.430388,14.2998562 C167.430388,13.7815507 167.305673,13.3216458 167.056244,12.9201416 C166.806814,12.5186373 166.473019,12.208384 166.054858,11.9893817 C165.636697,11.7703794 165.185523,11.6608782 164.701337,11.6608782 C163.798989,11.6608782 163.171748,11.9419312 162.819612,12.5040372 L162.819612,12.5040372 L162.819612,11.4966265 C162.819612,11.1535228 162.947995,10.8925451 163.20476,10.7136932 C163.461526,10.5348413 163.776981,10.4454153 164.151125,10.4454153 L164.151125,10.4454153 L166.935197,10.4454153 L166.935197,9.14235151 L163.920036,9.14235151 C163.465194,9.14235151 163.036029,9.22995244 162.63254,9.4051543 C162.229051,9.58035616 161.902592,9.83403385 161.653163,10.1661874 C161.403733,10.4983409 161.279019,10.8943701 161.279019,11.354275 L161.279019,11.354275 L161.279019,14.2889061 C161.279019,14.7999115 161.405567,15.2579914 161.658665,15.6631457 C161.911762,16.0683 162.271234,16.3840283 162.73708,16.6103307 C163.202926,16.8366331 163.736632,16.9497843 164.338197,16.9497843 Z M164.338197,15.6138701 C163.883355,15.6138701 163.516547,15.4879438 163.237773,15.2360911 C162.958999,14.9842385 162.819612,14.65391 162.819612,14.2451056 C162.819612,13.8509014 162.958999,13.529698 163.237773,13.2814954 C163.516547,13.0332928 163.883355,12.9091915 164.338197,12.9091915 C164.778366,12.9091915 165.137838,13.0332928 165.416612,13.2814954 C165.695386,13.529698 165.834773,13.8509014 165.834773,14.2451056 C165.834773,14.65391 165.69722,14.9842385 165.422114,15.2360911 C165.147008,15.4879438 164.785703,15.6138701 164.338197,15.6138701 Z M171.534969,16.9497843 C172.151206,16.9497843 172.701418,16.8402832 173.185605,16.6212808 C173.669791,16.4022785 174.047604,16.1048004 174.319041,15.7288464 C174.590479,15.3528924 174.726198,14.9313129 174.726198,14.464108 C174.726198,13.3690963 174.208999,12.6828891 173.174601,12.4054861 C173.600098,12.2813848 173.928391,12.0769826 174.15948,11.7922796 C174.390569,11.5075766 174.506113,11.1608229 174.506113,10.7520186 L174.506113,10.7520186 L174.506113,9.14235151 L172.96552,9.14235151 L172.96552,10.5768167 C172.96552,10.9856211 172.862814,11.2830992 172.657401,11.4692512 C172.451989,11.6554032 172.118194,11.7484792 171.656016,11.7484792 L171.656016,11.7484792 L170.852706,11.7484792 L170.852706,13.1281938 L171.512961,13.1281938 C172.591376,13.1281938 173.130584,13.5150979 173.130584,14.2889061 C173.130584,14.7050105 172.991197,15.0170888 172.712423,15.225141 C172.433649,15.4331932 172.037496,15.5372193 171.523965,15.5372193 C171.025106,15.5372193 170.630787,15.3985179 170.341009,15.1211149 C170.051231,14.843712 169.906342,14.4823581 169.906342,14.0370534 L169.906342,14.0370534 L169.906342,13.7961509 L168.365748,13.7961509 L168.365748,14.1137042 C168.365748,14.6904104 168.495965,15.1922907 168.756399,15.6193452 C169.016832,16.0463997 169.385474,16.3749032 169.862325,16.6048557 C170.339175,16.8348081 170.896723,16.9497843 171.534969,16.9497843 Z M177.565292,16.8074328 L177.565292,12.1864838 C177.565292,11.6024776 177.695509,11.1626479 177.955942,10.8669948 C178.216376,10.5713417 178.566678,10.4235151 179.006847,10.4235151 C179.447017,10.4235151 179.799152,10.5731667 180.063254,10.8724699 C180.327356,11.171773 180.459407,11.6097777 180.459407,12.1864838 L180.459407,12.1864838 L180.459407,16.8074328 L182,16.8074328 L182,12.1536334 C182,11.4820263 181.873451,10.9089702 181.620354,10.4344652 C181.367256,9.95996018 181.015121,9.60225639 180.563947,9.36135383 C180.112773,9.12045128 179.59374,9 179.006847,9 C178.419954,9 177.902755,9.12045128 177.455249,9.36135383 C177.007744,9.60225639 176.657442,9.95996018 176.404345,10.4344652 C176.151247,10.9089702 176.024698,11.4820263 176.024698,12.1536334 L176.024698,12.1536334 L176.024698,16.8074328 L177.565292,16.8074328 Z" id="Combined-fill" fill="#6E6F71"></path>
    </g>
</svg>